<svg width="176" height="36" viewBox="0 0 176 36" fill="none" xmlns="http://www.w3.org/2000/svg">
  <rect width="36" height="36" rx="10" fill="#0B1220"/>
  <path d="M10 8H19C26.1797 8 32 13.8203 32 21C32 28.1797 26.1797 34 19 34H10V8Z" fill="#F6F3EC"/>
  <path d="M16 15H19C22.3137 15 25 17.6863 25 21C25 24.3137 22.3137 27 19 27H16V15Z" fill="#0B1220"/>
  <path d="M50.624 26V10.544H57.2C58.5067 10.544 59.6427 10.7573 60.608 11.184C61.5733 11.6107 62.32 12.2187 62.848 13.008C63.392 13.7813 63.664 14.6907 63.664 15.736C63.664 16.6107 63.4853 17.384 63.128 18.056C62.7707 18.712 62.272 19.24 61.632 19.64C62.4693 20.024 63.1173 20.5867 63.576 21.328C64.0507 22.0693 64.288 22.9307 64.288 23.912C64.288 24.9893 64.008 25.9387 63.448 26.76C62.904 27.5653 62.1333 28.1973 61.136 28.656C60.1547 29.0987 59.0187 29.32 57.728 29.32H50.624V26ZM54.4 17.024H56.96C57.552 17.024 58.0107 16.8693 58.336 16.56C58.6773 16.2347 58.848 15.8187 58.848 15.312C58.848 14.8053 58.6773 14.4053 58.336 14.112C58.0107 13.8027 57.552 13.648 56.96 13.648H54.4V17.024ZM54.4 25.976H57.272C57.928 25.976 58.4347 25.8133 58.792 25.488C59.1653 25.1627 59.352 24.7147 59.352 24.144C59.352 23.5733 59.1653 23.1253 58.792 22.8C58.4347 22.4747 57.928 22.312 57.272 22.312H54.4V25.976Z" fill="#0B1220"/>
  <path d="M67.8308 26V14.76H71.4628L71.7508 16.632C72.1188 15.992 72.6148 15.488 73.2388 15.12C73.8788 14.736 74.6308 14.544 75.4948 14.544C76.1668 14.544 76.7428 14.64 77.2228 14.832L76.7188 18.272C76.4468 18.16 76.1508 18.08 75.8308 18.032C75.5268 17.968 75.1988 17.936 74.8468 17.936C74.2548 17.936 73.7348 18.064 73.2868 18.32C72.8388 18.56 72.4868 18.944 72.2308 19.472C71.9748 20 71.8468 20.688 71.8468 21.536V26H67.8308Z" fill="#0B1220"/>
  <path d="M83.1021 26.216C81.9661 26.216 80.9528 25.976 80.0621 25.496C79.1874 25 78.4994 24.32 77.9981 23.456C77.5128 22.576 77.2701 21.56 77.2701 20.408C77.2701 19.256 77.5208 18.248 78.0221 17.384C78.5234 16.504 79.2114 15.824 80.0861 15.344C80.9768 14.848 81.9901 14.6 83.1261 14.6C84.2621 14.6 85.2674 14.848 86.1421 15.344C87.0328 15.824 87.7288 16.504 88.2301 17.384C88.7314 18.248 88.9821 19.256 88.9821 20.408C88.9821 21.56 88.7314 22.576 88.2301 23.456C87.7288 24.32 87.0328 25 86.1421 25.496C85.2514 25.976 84.2381 26.216 83.1021 26.216ZM83.1261 22.848C83.6061 22.848 84.0301 22.736 84.3981 22.512C84.7821 22.272 85.0781 21.936 85.2861 21.504C85.5101 21.056 85.6221 20.52 85.6221 19.896C85.6221 19.272 85.5101 18.744 85.2861 18.312C85.0781 17.864 84.7901 17.528 84.4221 17.304C84.0541 17.064 83.6301 16.944 83.1501 16.944C82.6701 16.944 82.2381 17.064 81.8541 17.304C81.4861 17.528 81.1901 17.864 80.9661 18.312C80.7581 18.744 80.6541 19.272 80.6541 19.896C80.6541 20.52 80.7581 21.056 80.9661 21.504C81.1741 21.936 81.4621 22.272 81.8301 22.512C82.2141 22.736 82.6461 22.848 83.1261 22.848Z" fill="#0B1220"/>
  <path d="M95.6565 26.216C94.4725 26.216 93.4271 25.976 92.5205 25.496C91.6138 25.016 90.9105 24.344 90.4105 23.48C89.9265 22.6 89.6845 21.584 89.6845 20.432C89.6845 19.264 89.9265 18.248 90.4105 17.384C90.9105 16.504 91.6138 15.824 92.5205 15.344C93.4271 14.848 94.4805 14.6 95.6805 14.6C96.7045 14.6 97.6111 14.776 98.4005 15.128C99.2058 15.48 99.8538 15.984 100.345 16.64L97.8085 18.824C97.5525 18.472 97.2245 18.2 96.8245 18.008C96.4245 17.816 95.9845 17.72 95.5045 17.72C94.9765 17.72 94.5045 17.84 94.0885 18.08C93.6725 18.32 93.3445 18.656 93.1045 19.088C92.8805 19.504 92.7685 19.984 92.7685 20.528C92.7685 21.088 92.8885 21.576 93.1285 21.992C93.3685 22.408 93.6965 22.736 94.1125 22.976C94.5445 23.216 95.0245 23.336 95.5525 23.336C96.0165 23.336 96.4485 23.248 96.8485 23.072C97.2645 22.88 97.6085 22.6 97.8805 22.232L100.417 24.44C99.8938 25.112 99.2138 25.624 98.3765 25.976C97.5391 26.136 96.6325 26.216 95.6565 26.216Z" fill="#0B1220"/>
  <path d="M102.09 26V10.112H106.106V18.416L109.354 14.76H114.066L109.666 19.544L114.402 26H109.642L106.778 21.864L106.106 22.608V26H102.09Z" fill="#0B1220"/>
  <path d="M115.624 26V10.544H119.64V26H115.624Z" fill="#0B1220"/>
  <path d="M127.571 26.216C126.419 26.216 125.398 25.976 124.507 25.496C123.617 25 122.921 24.32 122.419 23.456C121.934 22.592 121.691 21.6 121.691 20.48C121.691 19.344 121.934 18.344 122.419 17.48C122.921 16.616 123.609 15.944 124.483 15.464C125.374 14.968 126.387 14.72 127.523 14.72C128.659 14.72 129.656 14.96 130.515 15.44C131.379 15.904 132.051 16.576 132.531 17.456C133.011 18.336 133.251 19.4 133.251 20.648V21.688H125.635C125.779 22.248 126.083 22.688 126.547 23.008C127.011 23.328 127.563 23.488 128.203 23.488C128.747 23.488 129.243 23.4 129.691 23.224C130.155 23.032 130.571 22.752 130.939 22.384L132.979 24.424C132.403 25.016 131.683 25.472 130.819 25.792C129.971 26.0747 128.888 26.216 127.571 26.216ZM125.611 19.616H129.643C129.547 19.072 129.299 18.648 128.899 18.344C128.499 18.024 128.003 17.864 127.411 17.864C126.851 17.864 126.371 18.016 125.971 18.32C125.587 18.624 125.334 19.056 125.211 19.616H125.611Z" fill="#0B1220"/>
  <path d="M139.874 26.216C138.93 26.216 138.082 26.064 137.33 25.76C136.594 25.44 136.01 25 135.578 24.44C135.146 23.864 134.906 23.184 134.858 22.4H138.562C138.626 22.736 138.81 23.008 139.114 23.216C139.434 23.424 139.818 23.528 140.266 23.528C140.666 23.528 140.97 23.456 141.178 23.312C141.402 23.152 141.514 22.96 141.514 22.736C141.514 22.416 141.33 22.184 140.962 22.04C140.61 21.88 140.138 21.736 139.546 21.608C138.954 21.464 138.354 21.28 137.746 21.056C137.154 20.816 136.666 20.472 136.282 20.024C135.914 19.576 135.73 18.96 135.73 18.176C135.73 17.488 135.922 16.872 136.306 16.328C136.706 15.768 137.266 15.328 137.986 15.008C138.706 14.688 139.554 14.528 140.53 14.528C141.938 14.528 143.058 14.848 143.89 15.488C144.738 16.112 145.226 16.984 145.354 18.104H141.842C141.794 17.8 141.642 17.56 141.386 17.384C141.13 17.208 140.778 17.12 140.33 17.12C139.93 17.12 139.618 17.184 139.394 17.312C139.186 17.44 139.082 17.616 139.082 17.84C139.082 18.08 139.266 18.28 139.634 18.44C140.002 18.6 140.482 18.752 141.074 18.896C141.682 19.024 142.282 19.208 142.874 19.448C143.466 19.672 143.946 20.016 144.314 20.48C144.698 20.928 144.89 21.56 144.89 22.376C144.89 23.448 144.482 24.304 143.666 24.944C142.866 25.6 141.602 26.216 139.874 26.216Z" fill="#0B1220"/>
</svg>
